<?xml version="1.0" encoding="UTF-8" standalone="no"?>
<!-- Created with Inkscape (http://www.inkscape.org/) -->

<svg
   width="1024"
   height="1024"
   viewBox="0 0 1024 1024"
   version="1.1"
   id="svg1"
   xml:space="preserve"
   inkscape:version="1.4.3 (0d15f75, 2025-12-25)"
   sodipodi:docname="kitty-nyan-rounded.svg"
   inkscape:export-filename="kitty.app5.png"
   inkscape:export-xdpi="96"
   inkscape:export-ydpi="96"
   xmlns:inkscape="http://www.inkscape.org/namespaces/inkscape"
   xmlns:sodipodi="http://sodipodi.sourceforge.net/DTD/sodipodi-0.dtd"
   xmlns:xlink="http://www.w3.org/1999/xlink"
   xmlns="http://www.w3.org/2000/svg"
   xmlns:svg="http://www.w3.org/2000/svg"><sodipodi:namedview
     id="namedview1"
     pagecolor="#ffffff"
     bordercolor="#000000"
     borderopacity="0.25"
     inkscape:showpageshadow="2"
     inkscape:pageopacity="0.0"
     inkscape:pagecheckerboard="0"
     inkscape:deskcolor="#d1d1d1"
     inkscape:document-units="px"
     inkscape:zoom="0.43793559"
     inkscape:cx="505.78214"
     inkscape:cy="574.28536"
     inkscape:window-width="1282"
     inkscape:window-height="838"
     inkscape:window-x="0"
     inkscape:window-y="39"
     inkscape:window-maximized="0"
     inkscape:current-layer="layer8"
     showguides="true"
     showgrid="false"
     inkscape:lockguides="false"><inkscape:grid
       id="grid4"
       units="px"
       originx="0"
       originy="0"
       spacingx="1"
       spacingy="1"
       empcolor="#0099e5"
       empopacity="0.30196078"
       color="#0099e5"
       opacity="0.14901961"
       empspacing="4"
       enabled="true"
       visible="false" /></sodipodi:namedview><defs
     id="defs1"><linearGradient
       id="linearGradient19"><stop
         offset="0"
         style="stop-color:#77767b;stop-opacity:1"
         id="stop12" /><stop
         offset="0.13559641"
         style="stop-color:#c0bfbc;stop-opacity:1"
         id="stop15" /><stop
         offset="1"
         style="stop-color:#77767b;stop-opacity:1"
         id="stop19" /></linearGradient><linearGradient
       id="linearGradient14"
       inkscape:collect="always"><stop
         offset="0"
         style="stop-color:#095090;stop-opacity:1;"
         id="stop13" /><stop
         offset="1"
         style="stop-color:#14274d;stop-opacity:1;"
         id="stop14" /></linearGradient><linearGradient
       id="linearGradient4255"><stop
         offset="0"
         style="stop-color:#051b47;stop-opacity:1;"
         id="stop4250" /><stop
         offset="0.13559641"
         style="stop-color:#0062a3;stop-opacity:1;"
         id="stop4251" /><stop
         offset="1"
         style="stop-color:#051b47;stop-opacity:1;"
         id="stop4255" /></linearGradient><linearGradient
       id="linearGradient4211"><stop
         offset="0"
         style="stop-color:#fff;stop-opacity:1"
         id="stop4210" /><stop
         offset="1"
         style="stop-color:#ffffff;stop-opacity:0.08000001;"
         id="stop4211" /></linearGradient><linearGradient
       id="linearGradient2081"><stop
         offset="0"
         style="stop-color:#383838;stop-opacity:1;"
         id="stop2080" /><stop
         offset="1"
         style="stop-color:#141414;stop-opacity:1;"
         id="stop2081" /></linearGradient><linearGradient
       id="linearGradient2035"><stop
         offset="0"
         style="stop-color:#072e4f;stop-opacity:1;"
         id="stop2034" /><stop
         offset="1"
         style="stop-color:#020412;stop-opacity:1;"
         id="stop2035" /></linearGradient><linearGradient
       id="linearGradient1995"
       inkscape:collect="always"><stop
         offset="0"
         style="stop-color:#072e4f;stop-opacity:1;"
         id="stop1994" /><stop
         offset="1"
         style="stop-color:#072a47;stop-opacity:1;"
         id="stop1995" /></linearGradient><clipPath
       clipPathUnits="userSpaceOnUse"
       id="clipPath1526"><rect
         style="opacity:0.2;fill:#808000;fill-opacity:1;stroke:none;stroke-width:0.571158;paint-order:fill markers stroke"
         id="rect1527"
         width="92.921928"
         height="80.117836"
         x="-819.00183"
         y="478.67703"
         ry="9.0082541" /></clipPath><clipPath
       clipPathUnits="userSpaceOnUse"
       id="clipPath1577"><rect
         style="opacity:0.5;fill:#0c4177;fill-opacity:1;stroke:none;stroke-width:0.765466;paint-order:fill markers stroke"
         id="rect1578"
         width="124.53398"
         height="107.37394"
         x="-842.60736"
         y="463.07404"
         ry="12.072865"
         clip-path="none" /></clipPath><clipPath
       clipPathUnits="userSpaceOnUse"
       id="clipPath1739"><path
         id="path1739"
         clip-path="none"
         style="fill:#008080;fill-opacity:1;stroke:none;stroke-width:0.5511;paint-order:fill markers stroke"
         d="m -891.37167,196.8296 c -2.84517,3.34417 -3.81344,10.69948 -2.17078,16.49179 l 20.44092,72.07799 c 0.043,0.15158 0.0871,0.30035 0.13281,0.44659 l 1.39596,4.92239 c 1.64266,5.79231 5.25582,7.76328 8.101,4.41909 l 42.69968,-50.18866 c 2.84518,-3.34419 3.8131,-10.6997 2.17043,-16.492 l -1.5159,-5.34531 c -0.003,-0.01 -0.005,-0.0192 -0.008,-0.0291 l -20.37594,-71.84886 -0.065,-0.22913 c -1.64266,-5.79231 -5.25546,-7.76309 -8.10064,-4.4189 z" /></clipPath><clipPath
       clipPathUnits="userSpaceOnUse"
       id="clipPath1842"><g
         id="g1843"
         style="fill:#008080"
         transform="rotate(-30,-967.19668,543.50489)"><rect
           style="fill:#008080;fill-opacity:1;stroke:none;stroke-width:0.786323;paint-order:fill markers stroke"
           id="rect1842"
           width="124.52295"
           height="113.3154"
           x="-862.44012"
           y="534.77612"
           ry="12.072865"
           clip-path="none" /><rect
           style="fill:#008080;fill-opacity:1;stroke:none;stroke-width:0.765465;paint-order:fill markers stroke"
           id="rect1843"
           width="124.53398"
           height="107.37394"
           x="-862.45111"
           y="534.51154"
           ry="12.072865"
           clip-path="none" /></g></clipPath><linearGradient
       xlink:href="#a"
       id="e"
       x1="48"
       x2="464"
       y1="44"
       y2="44"
       gradientUnits="userSpaceOnUse"
       gradientTransform="matrix(1.2307693,0,0,1.2307693,-2523.0459,-822.1538)" /><linearGradient
       id="a"><stop
         offset="0"
         style="stop-color:#77767b;stop-opacity:1"
         id="stop5" /><stop
         offset=".05"
         style="stop-color:#c0bfbc;stop-opacity:1"
         id="stop6" /><stop
         offset=".1"
         style="stop-color:#9a9996;stop-opacity:1"
         id="stop7" /><stop
         offset=".9"
         style="stop-color:#9a9996;stop-opacity:1"
         id="stop8" /><stop
         offset=".95"
         style="stop-color:#c0bfbc;stop-opacity:1"
         id="stop9" /><stop
         offset="1"
         style="stop-color:#77767b;stop-opacity:1"
         id="stop10" /></linearGradient><radialGradient
       xlink:href="#d"
       id="f"
       cx="64"
       cy="194.19"
       r="44"
       fx="64"
       fy="194.19"
       gradientTransform="matrix(23.272715,0,0,8.0559267,-3697.4216,-2174.8479)"
       gradientUnits="userSpaceOnUse" /><linearGradient
       id="d"
       inkscape:collect="always"><stop
         offset="0"
         style="stop-color:#fff;stop-opacity:1"
         id="stop3" /><stop
         offset="1"
         style="stop-color:#fff;stop-opacity:.09411765"
         id="stop4" /></linearGradient><linearGradient
       xlink:href="#linearGradient1995"
       id="g"
       x1="70.347"
       x2="70.347"
       y1="245.395"
       y2="269.13699"
       gradientUnits="userSpaceOnUse"
       gradientTransform="matrix(4.9230772,0,0,4.9230772,-2523.0459,-1929.846)" /><linearGradient
       inkscape:collect="always"
       xlink:href="#linearGradient14"
       id="linearGradient15"
       x1="-593.08209"
       y1="1668.161"
       x2="-593.08209"
       y2="952.46667"
       gradientUnits="userSpaceOnUse"
       gradientTransform="matrix(1.001166,0,0,1.001166,1105.7735,-761.95039)" /><linearGradient
       inkscape:collect="always"
       xlink:href="#linearGradient4211"
       id="linearGradient18"
       x1="-591.58527"
       y1="1503.608"
       x2="-591.58527"
       y2="863.60803"
       gradientUnits="userSpaceOnUse"
       gradientTransform="matrix(0.9385931,0,0,0.9385931,1067.2579,-598.92634)" /><clipPath
       clipPathUnits="userSpaceOnUse"
       id="clipPath136"><rect
         style="display:inline;fill:#b3b3b3;fill-opacity:1;stroke:none;stroke-width:0.927374;stroke-linejoin:bevel;stroke-opacity:1;paint-order:fill markers stroke"
         id="rect137"
         width="795.33978"
         height="795.33978"
         x="-138.03647"
         y="191.46492"
         rx="121.24007"
         ry="121.24007"
         transform="rotate(-30)" /></clipPath><filter
       style="color-interpolation-filters:sRGB"
       inkscape:label="Drop Shadow"
       id="filter235"
       x="-0.012204762"
       y="-0.01437222"
       width="1.0244095"
       height="1.0384292"><feFlood
         result="flood"
         in="SourceGraphic"
         flood-opacity="0.498039"
         flood-color="rgb(0,0,0)"
         id="feFlood234" /><feGaussianBlur
         result="blur"
         in="SourceGraphic"
         stdDeviation="4 4.746"
         id="feGaussianBlur234" /><feOffset
         result="offset"
         in="blur"
         dx="0.000000"
         dy="8.000000"
         id="feOffset234" /><feComposite
         result="comp1"
         operator="in"
         in="flood"
         in2="offset"
         id="feComposite234" /><feComposite
         result="comp2"
         operator="over"
         in="SourceGraphic"
         in2="comp1"
         id="feComposite235" /></filter><linearGradient
       inkscape:collect="always"
       xlink:href="#linearGradient14"
       id="linearGradient6"
       gradientUnits="userSpaceOnUse"
       gradientTransform="matrix(1.001166,0,0,1.001166,1105.7735,-761.95039)"
       x1="-593.08209"
       y1="1668.161"
       x2="-593.08209"
       y2="952.46667" /><linearGradient
       inkscape:collect="always"
       xlink:href="#linearGradient19"
       id="linearGradient12"
       x1="0"
       y1="0"
       x2="1024"
       y2="1024"
       gradientUnits="userSpaceOnUse" /><linearGradient
       inkscape:collect="always"
       xlink:href="#linearGradient4255"
       id="linearGradient30"
       x1="0"
       y1="0"
       x2="1024"
       y2="1024"
       gradientUnits="userSpaceOnUse" /></defs><g
     inkscape:groupmode="layer"
     id="layer8"
     inkscape:label="bg blue flat"
     style="display:none"
     sodipodi:insensitive="true"><rect
       style="display:inline;fill:#0062a3;fill-opacity:1;stroke:#14274d;stroke-width:0.963166;stroke-linejoin:bevel;stroke-opacity:1;paint-order:fill markers stroke"
       id="rect1"
       width="826.0368"
       height="826.0368"
       x="98.981567"
       y="98.981606"
       rx="180.27972"
       ry="189.70343" /><rect
       style="display:inline;fill:#000000;fill-opacity:1;stroke:none;stroke-width:0.882668;stroke-linejoin:bevel;paint-order:fill markers stroke"
       id="rect45"
       width="757"
       height="757"
       x="133.5"
       y="133.5"
       rx="152.04315"
       ry="152.04315" /><rect
       style="display:inline;fill:url(#linearGradient15);stroke:none;stroke-width:0.746246;stroke-linejoin:bevel;stroke-opacity:1;paint-order:fill markers stroke"
       id="rect3"
       width="640"
       height="640"
       x="192"
       y="192"
       rx="97.560371"
       ry="97.560371" /></g><g
     inkscape:groupmode="layer"
     id="g29"
     inkscape:label="bg blue grad"
     style="display:none"
     sodipodi:insensitive="true"><rect
       style="display:inline;fill:url(#linearGradient30);fill-opacity:1;stroke:#14274d;stroke-width:0.963166;stroke-linejoin:bevel;stroke-opacity:1;paint-order:fill markers stroke"
       id="rect27"
       width="826.0368"
       height="826.0368"
       x="98.981567"
       y="98.981606"
       rx="180.27972"
       ry="189.70343" /><rect
       style="display:inline;fill:#000000;fill-opacity:1;stroke:none;stroke-width:0.882668;stroke-linejoin:bevel;paint-order:fill markers stroke"
       id="rect28"
       width="757"
       height="757"
       x="133.5"
       y="133.5"
       rx="152.04315"
       ry="152.04315" /><rect
       style="display:inline;fill:url(#linearGradient15);stroke:none;stroke-width:0.746246;stroke-linejoin:bevel;stroke-opacity:1;paint-order:fill markers stroke"
       id="rect29"
       width="640"
       height="640"
       x="192"
       y="192"
       rx="97.560371"
       ry="97.560371" /></g><g
     inkscape:groupmode="layer"
     id="g33"
     inkscape:label="bg gray flat"
     style="display:none"
     sodipodi:insensitive="true"><rect
       style="display:inline;fill:#deddda;fill-opacity:1;stroke:#9a9996;stroke-width:0.963166;stroke-linejoin:bevel;stroke-opacity:1;paint-order:fill markers stroke"
       id="rect31"
       width="826.0368"
       height="826.0368"
       x="98.981567"
       y="98.981606"
       rx="180.27972"
       ry="189.70343" /><rect
       style="display:inline;fill:#000000;fill-opacity:1;stroke:none;stroke-width:0.882668;stroke-linejoin:bevel;paint-order:fill markers stroke"
       id="rect32"
       width="757"
       height="757"
       x="133.5"
       y="133.5"
       rx="152.04315"
       ry="152.04315" /><rect
       style="display:inline;fill:url(#linearGradient15);stroke:none;stroke-width:0.746246;stroke-linejoin:bevel;stroke-opacity:1;paint-order:fill markers stroke"
       id="rect33"
       width="640"
       height="640"
       x="192"
       y="192"
       rx="97.560371"
       ry="97.560371" /></g><g
     inkscape:groupmode="layer"
     id="g6"
     inkscape:label="bg gray grad"
     style="display:inline"
     sodipodi:insensitive="true"><rect
       style="display:inline;fill:url(#linearGradient12);fill-opacity:1;stroke:#9a9996;stroke-width:0.963166;stroke-linejoin:bevel;stroke-opacity:1;paint-order:fill markers stroke"
       id="rect2"
       width="826.0368"
       height="826.0368"
       x="98.981567"
       y="98.981606"
       rx="180.27972"
       ry="189.70343" /><rect
       style="display:inline;fill:#000000;fill-opacity:1;stroke:none;stroke-width:0.882668;stroke-linejoin:bevel;paint-order:fill markers stroke"
       id="rect4"
       width="757"
       height="757"
       x="133.5"
       y="133.5"
       rx="152.04315"
       ry="152.04315" /><rect
       style="display:inline;fill:url(#linearGradient6);stroke:none;stroke-width:0.746246;stroke-linejoin:bevel;stroke-opacity:1;paint-order:fill markers stroke"
       id="rect5"
       width="640"
       height="640"
       x="192"
       y="192"
       rx="97.560371"
       ry="97.560371" /></g><g
     inkscape:groupmode="layer"
     id="layer18"
     inkscape:label="cat"
     style="display:inline"
     clip-path="none"
     sodipodi:insensitive="true"><g
       id="g134"
       transform="matrix(0.69687982,0.40234375,-0.40234375,0.69687982,303.07622,37.930568)"
       clip-path="url(#clipPath136)"
       style="display:inline"><g
         id="g109"
         transform="matrix(3.6923034,0,0,2,18006.748,-287.99996)"><rect
           style="fill:#30e908;fill-opacity:1;stroke:none;stroke-width:4.99273;paint-order:fill markers stroke"
           id="rect103"
           width="155.99995"
           height="36"
           x="-4944"
           y="324" /><rect
           style="fill:#fff500;fill-opacity:1;stroke:none;stroke-width:4.99273;paint-order:fill markers stroke"
           id="rect104"
           width="156"
           height="36"
           x="-4944"
           y="288" /><rect
           style="fill:#ffa803;fill-opacity:1;stroke:none;stroke-width:4.99277;paint-order:fill markers stroke"
           id="rect105"
           width="155.99998"
           height="36"
           x="-4944"
           y="252" /><rect
           style="fill:#fe2b0d;fill-opacity:1;stroke:none;stroke-width:4.99276;paint-order:fill markers stroke"
           id="rect107"
           width="156"
           height="36"
           x="-4944"
           y="215.99998" /><rect
           style="fill:#02a1ff;fill-opacity:1;stroke:none;stroke-width:4.99273;paint-order:fill markers stroke"
           id="rect108"
           width="156"
           height="36"
           x="-4944"
           y="360" /><rect
           style="fill:#7756ff;fill-opacity:1;stroke:none;stroke-width:4.99273;paint-order:fill markers stroke"
           id="rect109"
           width="155.99992"
           height="36"
           x="-4944"
           y="396" /></g><g
         id="g133"
         transform="matrix(2,0,0,2,9864,-288.0008)"><g
           transform="matrix(-12.000006,0,0,12,-4631.9999,-12184.346)"
           id="g110"><path
             d="m 6,50 v -2 h 4 v 1 H 9 v 1 z"
             transform="translate(0,1002.3622)"
             id="path109"
             style="fill:#000000;fill-opacity:1;stroke:none" /><path
             d="m 7,48 h 2 v 1 H 7 Z"
             transform="translate(0,1002.3622)"
             id="path110"
             style="fill:#999999;fill-opacity:1;stroke:none" /></g><g
           transform="matrix(-12.000006,0,0,12,-4512,-12184.346)"
           id="g112"><path
             d="m 6,50 v -2 h 4 v 1 H 9 v 1 z"
             transform="translate(0,1002.3622)"
             id="path111"
             style="fill:#000000;fill-opacity:1;stroke:none" /><path
             d="m 7,48 h 2 v 1 H 7 Z"
             transform="translate(0,1002.3622)"
             id="path112"
             style="fill:#999999;fill-opacity:1;stroke:none" /></g><g
           id="g114"
           transform="matrix(12.000006,0,0,12,-4872.0001,-12184.346)"><path
             d="m 5,20 v -3 h 1 v -1 h 3 v 3 H 8 v 1 z"
             transform="translate(0,1032.3622)"
             id="path113"
             style="fill:#000000;fill-opacity:1;stroke:none" /><path
             d="m 6,17 h 2 v 2 H 6 Z"
             transform="translate(0,1032.3622)"
             id="path114"
             style="fill:#999999;fill-opacity:1;stroke:none" /></g><path
           d="m -4788.0001,216.0004 h 228.0002 v 192 h -228.0002 z"
           id="path115"
           style="fill:#ffcc99;fill-opacity:1;stroke-width:12" /><path
           d="m -4776.0001,372.0004 v -120 H -4764 v -12 h 12 v -12 h 156 v 12 h 12 v 12 h 12 v 120 h -12 v 12 h -12 v 12 h -156 v -12 h -12 v -12 z"
           id="path116"
           style="fill:#ff99ff;fill-opacity:1;stroke:none;stroke-width:12" /><path
           d="m -4608,264.0004 h 12 v 12 h -12 z m -48,-24 h 12 v 12 h -12 z m -36,0 h 12 v 12 h -12 z m -12,48 h 12 v 12 h -12 z m 12,36 h 12 v 12 h -12 z m -24,36 h 12 v 12 h -12 z m -24,-48 h 12 v 12 h -12 z m -24,24 h 12 v 12 h -12 z m 12,36 h 12 v 12 h -12 z m 0,-120 h 12 v 12 h -12 z"
           id="path117"
           style="fill:#ff3399;fill-opacity:1;stroke-width:12" /><path
           d="M -4776.0001,408.0004 H -4572 v 12 h -204.0001 z m 0,-204 H -4572 v 12 h -204.0001 z m 216.0002,192 v -168 h 12 v 168 z m -240.0002,0 v -168 h 12 v 168 z m 12,0 h 12 v 12 h -12 z m 0,-180 h 12 v 12 h -12 z m 216.0001,0 h 12.0001 v 12 H -4572 Z m 0,180 h 12.0001 v 12 H -4572 Z"
           id="path118"
           style="fill:#000000;fill-opacity:1;stroke-width:12" /><path
           d="m -4656.0001,383.99973 v -60 h 12 v -48 h 24 v 12 h 12 v 12 h 12 v 12 h 48 v -12 h 12 v -12 h 12 v -12 h 24 v 48 h 12 v 60 h -12 v 12 h -12 v 12 h -120 v -12 h -12 v -12 z"
           id="path119"
           style="fill:#999999;fill-opacity:1;stroke:none;stroke-width:12" /><path
           d="m -4512.0001,395.99973 h 12 v 12 h -12 z m 12,-12 h 12 v 12 h -12 z m 12,-60 H -4476 v 60 h -12.0001 z m -12,-48 h 12 v 48 h -12 z m -24,-12 h 24 v 12 h -24 z m -72,36 h 48 v 12 h -48 z m -48,-36 h 24 v 12 h -24 z m -12,12 h 12 v 48 h -12 z m -12,48 h 12 v 60 h -12 z m 132,-48 h 12 v 12 h -12 z m -12,12 h 12 v 12 h -12 z m -60,0 h 12 v 12 h -12 z m -12,-12 h 12 v 12 h -12 z m -12,132 h 120 v 12 h -120 z m -12,-12 h 12 v 12 h -12 z m -12,-12 h 12 v 12 h -12 z"
           id="path120"
           style="fill:#000000;fill-opacity:1;stroke:none;stroke-width:12" /><path
           d="m -4644.0001,359.99973 h 24 v 24 h -24 z"
           id="path121"
           style="fill:#ff9999;fill-opacity:1;stroke:none;stroke-width:12" /><path
           d="m -4512.0001,359.99973 h 24 v 24 h -24 z"
           id="path122"
           style="fill:#ff9999;fill-opacity:1;stroke:none;stroke-width:12" /><path
           d="m -4608.0001,395.99973 v -24 h 12 v 12 h 24 v -12 h 12 v 12 h 24 v -12 h 12 v 24 z"
           id="path123"
           style="fill:#000000;fill-opacity:1;stroke:none;stroke-width:12" /><path
           d="m -4560.0001,347.99973 h 12 v 12 h -12 z"
           id="path124"
           style="fill:#000000;fill-opacity:1;stroke:none;stroke-width:12" /><g
           id="g126"
           transform="matrix(12.000006,0,0,12,-4788.0002,203.99973)"><path
             d="m 21,13 v -1 h 1 v -1 h 1 v 2 z"
             id="path125"
             style="fill:#000000;fill-opacity:1;stroke:none" /><path
             d="m 21,11 h 1 v 1 h -1 z"
             id="path126"
             style="fill:#ffffff;fill-opacity:1;stroke:none" /></g><path
           d="m -4620.0001,359.99973 v -12 h 12 v -12 h 12 v 24 z"
           id="path127"
           style="fill:#000000;fill-opacity:1;stroke:none;stroke-width:12" /><path
           d="m -4620.0001,335.99973 h 12 v 12 h -12 z"
           id="path128"
           style="fill:#ffffff;fill-opacity:1;stroke:none;stroke-width:12" /><g
           transform="matrix(-12.000006,0,0,12,-4452,-12184.346)"
           id="g130"><path
             d="m 6,50 v -2 h 4 v 1 H 9 v 1 z"
             transform="translate(0,1002.3622)"
             id="path129"
             style="fill:#000000;fill-opacity:1;stroke:none" /><path
             d="m 7,48 h 2 v 1 H 7 Z"
             transform="translate(0,1002.3622)"
             id="path130"
             style="fill:#999999;fill-opacity:1;stroke:none" /></g><g
           id="g132"
           transform="matrix(12.000006,0,0,12,-4872.0001,-12184.346)"><path
             d="M 1,12 H 0 V 10 H 1 V 9 h 2 v 1 h 1 v 1 h 2 v 4 H 4 V 14 H 2 V 13 H 1 Z"
             transform="translate(0,1032.3622)"
             id="path131"
             style="fill:#000000;stroke:none" /><path
             d="m 1,12 v -2 h 2 v 2 h 3 v 2 H 4 V 13 H 2 v -1 z"
             transform="translate(0,1032.3622)"
             id="path132"
             style="fill:#999999;fill-opacity:1;stroke:none" /></g></g></g></g><g
     inkscape:groupmode="layer"
     id="layer22"
     inkscape:label="shades"
     style="display:inline"
     sodipodi:insensitive="true"><g
       id="g177"
       style="display:inline"
       transform="translate(-32.9862,22.187479)"><g
         id="g175"
         transform="matrix(0.69687982,0.40234375,-0.40234375,0.69687982,381.12529,-62.308465)"><path
           id="path173"
           style="display:inline;fill:#000000;fill-opacity:1;stroke:none;stroke-width:2.39696;paint-order:fill markers stroke"
           d="m 504,472 v 24 h 24 24 24 24 v 24 h 24 v 24 h 24 24 24 v -24 h 24 v -24 h 24 24 v 24 h 24 v 24 h 24 24 24 v -24 h 24 v -24 -24 h -24 -24 -24 -24 -24 -24 -24 -24 -24 -24 -24 -24 -24 -24 -24 z" /><rect
           style="fill:#ffffff;fill-opacity:1;stroke:none;stroke-width:2.39696;paint-order:fill markers stroke"
           id="rect174"
           width="24"
           height="24"
           x="672"
           y="496" /><rect
           style="fill:#ffffff;fill-opacity:1;stroke:none;stroke-width:2.39696;paint-order:fill markers stroke"
           id="rect175"
           width="24"
           height="24"
           x="840"
           y="496" /></g></g></g><g
     inkscape:groupmode="layer"
     id="layer20"
     inkscape:label="prompt"
     style="display:inline"
     sodipodi:insensitive="true"><g
       id="g204"
       style="display:inline"><path
         id="path47-1"
         style="display:inline;fill:#ecf0f1;fill-opacity:1;stroke:none;stroke-width:0.989043;stroke-linejoin:bevel;paint-order:fill markers stroke"
         d="m 253.5,623.50001 v 31.3822 l 70.6301,34.6178 -70.6301,34.6176 v 31.3824 l 100,-53.5107 v -24.9786 z"
         sodipodi:nodetypes="cccccccc" /><rect
         style="display:inline;fill:#ecf0f1;fill-opacity:1;stroke:none;stroke-width:1.03855;stroke-linejoin:bevel;paint-order:fill markers stroke"
         id="rect48"
         width="116"
         height="25"
         x="385.50006"
         y="775.5" /></g></g><g
     inkscape:groupmode="layer"
     id="layer21"
     inkscape:label="stars"
     style="display:inline"
     sodipodi:insensitive="true"><g
       id="g159"
       transform="matrix(0.8046875,0,0,0.8046875,265.82128,125.46822)"
       style="display:inline"><rect
         style="fill:#ffffff;fill-opacity:1;stroke:none;stroke-width:2.39696;paint-order:fill markers stroke"
         id="rect154"
         width="24"
         height="24"
         x="585.70239"
         y="-141.35898"
         transform="rotate(30)" /><g
         id="g158"><rect
           style="fill:#ffffff;fill-opacity:1;stroke:none;stroke-width:2.29496;paint-order:fill markers stroke"
           id="rect155"
           width="48"
           height="24"
           x="513.70239"
           y="-141.35898"
           transform="rotate(30)" /><rect
           style="fill:#ffffff;fill-opacity:1;stroke:none;stroke-width:2.29496;paint-order:fill markers stroke"
           id="rect156"
           width="48"
           height="24"
           x="633.70239"
           y="-141.35898"
           transform="rotate(30)" /><rect
           style="fill:#ffffff;fill-opacity:1;stroke:none;stroke-width:2.29496;paint-order:fill markers stroke"
           id="rect157"
           width="48"
           height="24"
           x="-213.35898"
           y="-609.70239"
           transform="rotate(120)" /><rect
           style="fill:#ffffff;fill-opacity:1;stroke:none;stroke-width:2.29496;paint-order:fill markers stroke"
           id="rect158"
           width="48"
           height="24"
           x="-93.358971"
           y="-609.70239"
           transform="rotate(120)" /></g></g><rect
       style="display:inline;fill:#ffffff;fill-opacity:1;stroke:none;stroke-width:1.9288;paint-order:fill markers stroke"
       id="rect169"
       width="19.3125"
       height="19.3125"
       x="551.81183"
       y="-60.751781"
       transform="rotate(30)" /><g
       id="g185"
       style="display:inline;fill:#ffffff"
       transform="matrix(0.8046875,0,0,0.8046875,198.29292,946.5193)"><rect
         style="fill:#ffffff;fill-opacity:1;stroke:none;stroke-width:2.39696;paint-order:fill markers stroke"
         id="rect182"
         width="24"
         height="24"
         x="448.21033"
         y="-514.95605"
         transform="rotate(30)" /><rect
         style="fill:#ffffff;fill-opacity:1;stroke:none;stroke-width:2.39696;paint-order:fill markers stroke"
         id="rect183"
         width="24"
         height="24"
         x="472.21033"
         y="-538.95605"
         transform="rotate(30)" /><rect
         style="fill:#ffffff;fill-opacity:1;stroke:none;stroke-width:2.39696;paint-order:fill markers stroke"
         id="rect184"
         width="24"
         height="24"
         x="496.21033"
         y="-514.95605"
         transform="rotate(30)" /><rect
         style="fill:#ffffff;fill-opacity:1;stroke:none;stroke-width:2.39696;paint-order:fill markers stroke"
         id="rect185"
         width="24"
         height="24"
         x="472.21033"
         y="-490.95605"
         transform="rotate(30)" /></g></g><g
     inkscape:groupmode="layer"
     id="layer17"
     inkscape:label="top reflection"
     style="display:inline"><rect
       style="display:inline;opacity:0.08;fill:url(#linearGradient18);stroke:none;stroke-width:0.699606;stroke-linejoin:bevel;stroke-opacity:1;paint-order:fill markers stroke"
       id="rect17"
       width="600"
       height="600"
       x="212"
       y="212"
       rx="73.831909"
       ry="79.708878" /></g></svg>
